<svg xmlns="http://www.w3.org/2000/svg" viewBox="0 0 422.85 35.35"><defs><style>.cls-1{fill:#040000;}.cls-2{fill:none;stroke:#000;stroke-miterlimit:10;stroke-width:2px;}</style></defs><g id="图层_2" data-name="图层 2"><g id="图层_1-2" data-name="图层 1"><path class="cls-1" d="M211.28,5.6V.94h23.88V5.6h-9.07V30.91h-5.7V5.6Z"/><path class="cls-1" d="M249.31,30.91,237.5.94h5.84l8.41,22.13L260.11.94H266l-11.8,30Z"/><path class="cls-1" d="M302.08.41c8.58,0,14.64,6.45,14.64,15.51,0,5.54-2.22,10.07-5.93,12.77l6.06,6.66h-6.54l-4.05-4.57a14.51,14.51,0,0,1-4.18.65c-8.58,0-14.64-6.45-14.64-15.51S293.5.41,302.08.41Zm0,26.23c5.18,0,8.76-4.44,8.76-10.72s-3.58-10.71-8.76-10.71-8.76,4.44-8.76,10.71S296.9,26.64,302.08,26.64Z"/><path class="cls-1" d="M333.66,10.43a4.88,4.88,0,0,0-5.05-5.09,11.83,11.83,0,0,0-7,2.78V2.85A16.82,16.82,0,0,1,330.22.41c5.4,0,9.28,3.79,9.28,9.11,0,4.57-3.31,9.58-10.89,16.6H339.8v4.79H320.89V27.34C330,19.36,333.66,14.35,333.66,10.43Z"/><path class="cls-1" d="M106.92.88c-4.35,0-8.69.55-11.44,3.25s-3.81,6.77-3.81,11.75.94,9,3.7,11.68,7.21,3.35,11.55,3.35,8.67-.56,11.42-3.26,3.83-6.79,3.83-11.77-1-9-3.71-11.65S111.26.88,106.92.88Zm6.59,22.19c-1.53,1.74-4.3,2.05-6.59,2.05s-5-.3-6.58-2.05-1.64-4.15-1.64-7.19.1-5.37,1.63-7.12,4-2,6.59-2,5.06.3,6.59,2.05,1.63,4.09,1.63,7.12S115,21.32,113.51,23.07ZM46.72,1.41H40.57a.47.47,0,0,0-.47.47V29.93a.47.47,0,0,0,.47.47h6.15a.48.48,0,0,0,.48-.47v-28A.48.48,0,0,0,46.72,1.41ZM20.87,15.66,31.8,2.14a.45.45,0,0,0-.35-.73H23.58a.6.6,0,0,0-.48.24l-7.22,9.57-7-9.57a.61.61,0,0,0-.48-.24H.46a.45.45,0,0,0-.35.73L11.17,15.92.09,29.67a.46.46,0,0,0,.36.73H8.34a.61.61,0,0,0,.49-.25l7.37-9.54,7,9.54a.58.58,0,0,0,.48.25h7.8a.45.45,0,0,0,.35-.73ZM170.62,3.54c-2.5-2.33-6.52-2.61-9.78-2.61a18.24,18.24,0,0,0-8.5,1.73h-1.13c-1.59-.88-4.39-1.73-8.79-1.73-3.25,0-7.24.24-9.7,2.3-2,1.71-2.51,4-2.51,8.66v18a.47.47,0,0,0,.48.46h6.14a.47.47,0,0,0,.48-.46V15.08c0-2.68-.11-5.47.47-6.51.45-.81,1.16-1.71,4.5-1.71,4,0,4.92.28,5.55,2a6.57,6.57,0,0,1,.25,1.73V29.92a.48.48,0,0,0,.48.46h6.15a.47.47,0,0,0,.47-.46V10.63a6.52,6.52,0,0,1,.26-1.73c.63-1.76,1.57-2,5.55-2,3.34,0,4,.9,4.49,1.71.58,1,.48,3.83.48,6.51V29.92a.47.47,0,0,0,.47.46h6.15a.48.48,0,0,0,.48-.46V13C173.06,8.14,172.9,5.66,170.62,3.54ZM82.37,5.26c-2.84-3.92-8-5.1-13.3-4.82a37.61,37.61,0,0,0-10.13,1.8c-.6.23-.52.74-.53,1,0,1-.1,3.71-.1,4.8,0,.48.59.7,1.09.53a38.14,38.14,0,0,1,8.53-2c3.15-.26,7.44,0,8.63,1.79a7.31,7.31,0,0,1,.65,3.49,53.94,53.94,0,0,0-7.78-.27c-2.26.12-6.58.31-9.12,1.66-2.07,1.11-3.29,2.11-3.93,4a11.35,11.35,0,0,0-.5,4.77c.38,3.36,1.54,5,3.12,6.19C61.48,30,64.61,31,71.09,30.84c8.62-.19,10.89-3,12-5,1.94-3.37,1.61-8.69,1.55-11.95C84.65,12.58,84.45,8.12,82.37,5.26ZM76.75,23c-.81,1.71-3.71,2-5.43,2.06-3.18.14-5.52,0-7-.73a3.46,3.46,0,0,1-1.81-2.93A3,3,0,0,1,62.94,19c1.12-1.46,4-1.77,7-1.88a54.73,54.73,0,0,1,7.4.42A16.42,16.42,0,0,1,76.75,23ZM189.45,1.41H183.3a.48.48,0,0,0-.48.47V29.93a.48.48,0,0,0,.48.47h6.15a.48.48,0,0,0,.48-.47v-28A.48.48,0,0,0,189.45,1.41Z"/><path class="cls-1" d="M376.39,9.55v4a12.19,12.19,0,0,1,1.66-.13c3.46,0,5.85,2.23,5.85,5.59,0,3.52-2.76,6-6.72,6a9.65,9.65,0,0,1-4.25-1v-3.2a7.19,7.19,0,0,0,3.94,1.34c2.09,0,3.56-1.29,3.56-3.13S379,16,376.87,16a12.28,12.28,0,0,0-3.47.53V6.66h9.53V9.55Z"/><path class="cls-1" d="M391.17,9.55v4a12,12,0,0,1,1.65-.13c3.46,0,5.85,2.23,5.85,5.59,0,3.52-2.75,6-6.72,6a9.68,9.68,0,0,1-4.25-1v-3.2a7.19,7.19,0,0,0,3.94,1.34c2.1,0,3.57-1.29,3.57-3.13S393.74,16,391.64,16a12.28,12.28,0,0,0-3.47.53V6.66h9.53V9.55Z"/><path class="cls-1" d="M401,13l2.68-6.35h2.83L404.26,13Zm5,0,2.68-6.35h2.83L409.22,13Z"/><rect class="cls-2" x="362" y="1" width="59.85" height="29.14" rx="5"/></g></g></svg>

