<svg xmlns="http://www.w3.org/2000/svg" width="621.42" height="47.09" viewBox="0 0 621.42 47.09"><title>xiaomi book s 12.4_black</title><path d="M569.11,30.65V27.51l12.23-16.92h4.07V26.81h4v3.84h-4v6.64H580.6V30.65ZM580.6,17.54l-6.68,9.27h6.68Z"/><path d="M591,20l4-9.39h4.19L595.81,20Zm7.33,0,4-9.39h4.19L603.14,20Z"/><path d="M470,40.33c4.9,0,8.25-2.58,8.25-6.31,0-9.09-21.52-4.64-21.52-20,0-7.6,6.5-12.82,15.85-12.82a31.54,31.54,0,0,1,11.91,2.45v7.67A22,22,0,0,0,473.15,8c-4.71,0-8,2.38-8,5.92,0,8.83,21.52,4.39,21.52,20,0,7.79-6.71,13.2-16.11,13.2a30.52,30.52,0,0,1-12.95-3v-7.8a22.92,22.92,0,0,0,12.37,4"/><path d="M312.12,2c7.66,0,13.14,5,13.14,11.79A10.37,10.37,0,0,1,319,23.64a10.87,10.87,0,0,1,7.86,10.5c0,7.15-5.67,12.18-13.6,12.18H295.3V2Zm-1.61,18.61c3.86,0,6.57-2.51,6.57-6s-2.71-6.06-6.57-6.06h-7.15V20.61Zm1,19.2c4.19,0,7-2.7,7-6.44s-2.77-6.38-7-6.38h-8.11V39.81Z"/><path d="M348.77,13.34c9.73,0,16.56,7,16.56,16.87s-6.83,16.88-16.56,16.88-16.62-7-16.62-16.88S339,13.34,348.77,13.34m0,26.86c4.77,0,8.12-4.06,8.12-10s-3.35-10-8.12-10-8.18,4.06-8.18,10,3.35,10,8.18,10"/><path d="M386.58,13.34c9.73,0,16.56,7,16.56,16.87s-6.83,16.88-16.56,16.88S370,40.07,370,30.21s6.89-16.87,16.62-16.87m0,26.86c4.77,0,8.12-4.06,8.12-10s-3.35-10-8.12-10-8.18,4.06-8.18,10,3.35,10,8.18,10"/><polygon points="418.02 0 418.02 26.41 428.26 14.11 437.86 14.11 424.72 29.96 438.37 46.32 428.52 46.32 418.02 33.5 418.02 46.32 409.96 46.32 409.96 0 418.02 0"/><path d="M158.12,1.91c-6.42,0-12.86.81-16.92,4.81s-5.63,10-5.63,17.37S137,37.36,141,41.36s10.66,5,17.08,5S170.94,45.5,175,41.5s5.67-10,5.67-17.41-1.43-13.23-5.49-17.23-10.64-4.95-17.07-4.95m9.75,32.81c-2.26,2.59-6.37,3-9.75,3s-7.47-.45-9.74-3S146,28.59,146,24.1s.15-8,2.41-10.54,5.9-3,9.74-3,7.48.45,9.75,3,2.4,6.06,2.4,10.54-.14,8-2.4,10.62M69.1,2.69H60a.69.69,0,0,0-.7.69v41.5a.69.69,0,0,0,.7.68h9.1a.7.7,0,0,0,.7-.68V3.38a.7.7,0,0,0-.7-.69M30.87,23.78,47,3.78a.66.66,0,0,0-.52-1.08H34.87a.9.9,0,0,0-.71.35L23.48,17.2,13.07,3.06a.88.88,0,0,0-.71-.36H.68A.66.66,0,0,0,.16,3.78L16.51,24.15.14,44.49a.66.66,0,0,0,.53,1.07H12.34a.9.9,0,0,0,.72-.36L24,31.1,34.29,45.2a.88.88,0,0,0,.72.36H46.54a.66.66,0,0,0,.52-1.07ZM252.33,5.84C248.63,2.4,242.68,2,237.87,2c-6.22,0-10.18,1.33-12.58,2.57h-1.67c-2.35-1.3-6.49-2.57-13-2.57-4.82,0-10.72.36-14.36,3.41-3,2.52-3.71,5.89-3.71,12.8V44.85a.7.7,0,0,0,.71.69h9.09a.7.7,0,0,0,.71-.69v-.09s0-16.86,0-21.85c0-4-.15-8.09.7-9.63.67-1.19,1.71-2.53,6.65-2.53,5.89,0,7.28.41,8.21,3a9.92,9.92,0,0,1,.38,2.56V44.85a.69.69,0,0,0,.7.69h9.1a.7.7,0,0,0,.7-.69V16.33a9.5,9.5,0,0,1,.38-2.56c.93-2.61,2.31-3,8.21-3,4.93,0,6,1.34,6.64,2.53.86,1.54.7,5.67.7,9.63V44.85a.7.7,0,0,0,.71.69h9.09a.7.7,0,0,0,.7-.69v-25c0-7.17-.23-10.84-3.6-14M121.82,8.39C117.62,2.6,110,.84,102.14,1.26a56,56,0,0,0-15,2.66c-.88.34-.77,1.1-.78,1.56,0,1.53-.15,5.48-.14,7.09,0,.71.87,1,1.6.78a56.63,56.63,0,0,1,12.62-3c4.67-.38,11,0,12.76,2.65.83,1.26.87,3.18,1,5.15a81.69,81.69,0,0,0-11.51-.4c-3.34.18-9.73.46-13.49,2.47-3.06,1.63-4.86,3.11-5.82,5.86a17,17,0,0,0-.73,7.06c.56,5,2.28,7.43,4.61,9.15,3.68,2.72,8.31,4.15,17.89,3.95,12.75-.28,16.1-4.41,17.79-7.33,2.88-5,2.39-12.86,2.3-17.68,0-2-.34-8.59-3.41-12.82m-8.31,26.16c-1.2,2.53-5.49,2.93-8,3-4.7.22-8.16,0-10.4-1.08a5.09,5.09,0,0,1-2.66-4.32c-.09-1.62-.06-2.46.68-3.42,1.65-2.15,6-2.62,10.4-2.79a82.17,82.17,0,0,1,10.94.63c0,3.25-.24,6.51-.92,7.94M280.17,2.69h-9.09a.7.7,0,0,0-.71.69v41.5a.7.7,0,0,0,.71.68h9.09a.7.7,0,0,0,.71-.68V3.38a.7.7,0,0,0-.71-.69"/><polygon points="518.82 19.67 518.82 15.09 527.05 10.59 530.42 10.59 530.42 37.29 525.34 37.29 525.34 16.06 518.82 19.67"/><path d="M550.29,19.05a4.35,4.35,0,0,0-4.5-4.54A10.55,10.55,0,0,0,539.54,17V12.3a15,15,0,0,1,7.69-2.17,7.88,7.88,0,0,1,8.26,8.11c0,4.07-3,8.53-9.7,14.78h10v4.27H538.92V34.11c8.15-7.1,11.37-11.57,11.37-15.06"/><path d="M563.56,31.82a2.84,2.84,0,0,1,3,3,3,3,0,0,1-6,0,2.84,2.84,0,0,1,3-3"/><rect x="505.77" y="2.21" width="114.65" height="43.1" rx="5" style="fill:none;stroke:#000;stroke-miterlimit:10;stroke-width:2px"/></svg>