<svg xmlns="http://www.w3.org/2000/svg" width="540.2" height="45.89" viewBox="0 0 540.2 45.89"><path d="M462.9.79c9,0,15.46,5.86,15.46,14.24S471.92,29.2,462.9,29.2h-7.41V45.12h-8.24V.79ZM461.74,22.5c4.77,0,8.12-3,8.12-7.47s-3.35-7.54-8.12-7.54h-6.25v15Z"/><path d="M493.44,12.9v3.22a10.93,10.93,0,0,1,7.92-4,10.09,10.09,0,0,1,2.71.32V19.8a10.85,10.85,0,0,0-2.9-.39,10.14,10.14,0,0,0-7.73,4.19V45.12h-8.25V12.9Z"/><path d="M523.65,12.13c9.73,0,16.55,7,16.55,16.88s-6.82,16.88-16.55,16.88S507,38.87,507,29,513.92,12.13,523.65,12.13Zm0,26.87c4.77,0,8.12-4.06,8.12-10s-3.35-10-8.12-10-8.18,4.06-8.18,10S518.82,39,523.65,39Z"/><path d="M312.45,15.86V8.25L326.11.78h5.6V45.1h-8.44V9.86Z"/><path d="M364.69,14.82a7.22,7.22,0,0,0-7.47-7.53c-3.22,0-6.89,1.41-10.37,4.12V3.62A24.77,24.77,0,0,1,359.6,0c8,0,13.72,5.6,13.72,13.46,0,6.77-4.89,14.17-16.1,24.55h16.56V45.1h-28V39.82C359.34,28,364.69,20.62,364.69,14.82Z"/><path d="M380.34,7.67V.78h35.31V7.67h-13.4V45.1h-8.44V7.67Z"/><path d="M158.12.7c-6.42,0-12.86.81-16.92,4.81s-5.64,10-5.64,17.38S137,36.16,141,40.16s10.66,5,17.08,5S170.94,44.3,175,40.3s5.67-10,5.67-17.41-1.43-13.24-5.49-17.23S164.55.7,158.12.7Zm9.75,32.82c-2.27,2.58-6.37,3-9.75,3s-7.47-.45-9.74-3S146,27.38,146,22.9s.15-7.95,2.41-10.54,5.9-3,9.74-3,7.48.45,9.74,3,2.41,6.05,2.41,10.54S170.13,30.93,167.87,33.52ZM69.1,1.49H60a.69.69,0,0,0-.7.69V43.67a.69.69,0,0,0,.7.69h9.1a.7.7,0,0,0,.7-.69V2.18A.7.7,0,0,0,69.1,1.49ZM30.87,22.57,47,2.57a.66.66,0,0,0-.52-1.08H34.87a.9.9,0,0,0-.71.35L23.48,16,13.07,1.85a.9.9,0,0,0-.71-.36H.68A.66.66,0,0,0,.16,2.57L16.51,22.94.14,43.29a.66.66,0,0,0,.52,1.07H12.34a.9.9,0,0,0,.72-.37L24,29.89,34.29,44a.91.91,0,0,0,.72.36H46.54a.66.66,0,0,0,.52-1.07ZM252.33,4.64C248.63,1.2,242.68.78,237.87.78c-6.22,0-10.18,1.32-12.58,2.56h-1.67c-2.35-1.3-6.49-2.56-13-2.56-4.82,0-10.72.35-14.36,3.41-3,2.52-3.71,5.89-3.71,12.79V43.65a.7.7,0,0,0,.71.69h9.09a.7.7,0,0,0,.71-.69v-.09s0-16.86,0-21.86c0-4-.15-8.08.7-9.62.67-1.2,1.71-2.53,6.65-2.53,5.89,0,7.28.41,8.21,3a9.37,9.37,0,0,1,.38,2.56V43.65a.69.69,0,0,0,.7.69h9.09a.7.7,0,0,0,.71-.69V15.13a9.37,9.37,0,0,1,.38-2.56c.93-2.61,2.31-3,8.2-3,4.94,0,6,1.33,6.65,2.53.86,1.54.7,5.66.7,9.62v22a.7.7,0,0,0,.71.69h9.09a.7.7,0,0,0,.7-.69v-25C255.93,11.44,255.7,7.77,252.33,4.64ZM121.82,7.18C117.62,1.39,110-.36,102.14.06a56,56,0,0,0-15,2.66c-.88.33-.77,1.09-.78,1.55,0,1.53-.15,5.49-.14,7.1,0,.71.87,1,1.6.78a56.6,56.6,0,0,1,12.62-3c4.67-.38,11,0,12.76,2.65.83,1.26.87,3.19,1,5.16a78.77,78.77,0,0,0-11.51-.4C99.34,16.71,93,17,89.19,19c-3.06,1.63-4.86,3.11-5.82,5.87a17,17,0,0,0-.73,7.06c.56,5,2.28,7.43,4.61,9.15,3.67,2.72,8.31,4.15,17.89,3.94,12.75-.28,16.1-4.4,17.79-7.33,2.88-5,2.38-12.85,2.29-17.68C125.19,18,124.89,11.42,121.82,7.18Zm-8.31,26.17c-1.2,2.53-5.49,2.92-8,3-4.7.21-8.16,0-10.4-1.08A5.12,5.12,0,0,1,92.4,31c-.08-1.63-.05-2.46.68-3.43,1.66-2.15,6-2.61,10.41-2.78a78.94,78.94,0,0,1,10.94.63C114.4,28.66,114.19,31.92,113.51,33.35ZM280.17,1.49h-9.09a.7.7,0,0,0-.71.69V43.67a.7.7,0,0,0,.71.69h9.09a.7.7,0,0,0,.71-.69V2.18A.7.7,0,0,0,280.17,1.49Z"/></svg>